name Walk5.mot
datacolumns 19
datarows 27
range 1.43000000 1.45600000
endheader

                time	   L_ground_force_vx	   L_ground_force_vy	   L_ground_force_vz	   L_ground_force_px	   L_ground_force_py	   L_ground_force_pz	   R_ground_force_vx	   R_ground_force_vy	   R_ground_force_vz	   R_ground_force_px	   R_ground_force_py	   R_ground_force_pz	   L_ground_torque_x	   L_ground_torque_y	   L_ground_torque_z	   R_ground_torque_x	   R_ground_torque_y	   R_ground_torque_z	
          1.43000000	         -2.23599797	         95.82810640	        -11.18311661	          0.00323540	          0.00000000	          0.00629357	         -0.00000017	          0.00000191	          0.00000003	          0.00000000	          0.00000000	          0.00000000	          0.00000000	          0.14187053	          0.00000000	          0.00000000	         -0.00000001	          0.00000000	
          1.43100000	         -2.95387189	        103.68371682	        -12.05511244	         -0.01187011	          0.00000000	          0.00324881	         -0.00000018	          0.00000198	          0.00000003	          0.00000000	          0.00000000	          0.00000000	          0.00000000	          0.15089966	          0.00000000	          0.00000000	         -0.00000001	          0.00000000	
          1.43200000	         -3.73267895	        111.79635862	        -12.94536638	         -0.02692423	          0.00000000	          0.00021949	         -0.00000019	          0.00000204	          0.00000003	          0.00000000	          0.00000000	          0.00000000	          0.00000000	          0.15987260	          0.00000000	          0.00000000	         -0.00000001	          0.00000000	
          1.43300000	         -4.57472819	        120.15736476	        -13.85217491	         -0.04188993	          0.00000000	         -0.00278708	         -0.00000020	          0.00000210	          0.00000003	          0.00000000	          0.00000000	          0.00000000	          0.00000000	          0.16875285	          0.00000000	          0.00000000	         -0.00000001	          0.00000000	
          1.43400000	         -5.48226987	        128.75632158	        -14.77363233	         -0.05672979	          0.00000000	         -0.00576361	         -0.00000021	          0.00000215	          0.00000003	          0.00000000	          0.00000000	          0.00000000	          0.00000000	          0.17750143	          0.00000000	          0.00000000	         -0.00000001	          0.00000000	
          1.43500000	         -6.45748239	        137.58093837	        -15.70761667	         -0.07140574	          0.00000000	         -0.00870274	         -0.00000022	          0.00000221	          0.00000003	          0.00000000	          0.00000000	          0.00000000	          0.00000000	          0.18607673	          0.00000000	          0.00000000	         -0.00000001	          0.00000000	
          1.43600000	         -7.50245640	        146.61692467	        -16.65177858	         -0.08587915	          0.00000000	         -0.01159712	         -0.00000023	          0.00000226	          0.00000003	          0.00000000	          0.00000000	          0.00000000	          0.00000000	          0.19443443	          0.00000000	          0.00000000	         -0.00000001	          0.00000000	
          1.43700000	         -8.61917138	        155.84792003	        -17.60354227	         -0.10011209	          0.00000000	         -0.01443965	         -0.00000024	          0.00000230	          0.00000003	          0.00000000	          0.00000000	          0.00000000	          0.00000000	          0.20252767	          0.00000000	          0.00000000	         -0.00000001	          0.00000000	
          1.43800000	         -9.80946015	        165.25554294	        -18.56012200	         -0.11406918	          0.00000000	         -0.01722385	         -0.00000025	          0.00000234	          0.00000003	          0.00000000	          0.00000000	          0.00000000	          0.00000000	          0.21030745	          0.00000000	          0.00000000	         -0.00000001	          0.00000000	
          1.43900000	        -11.07496220	        174.81960480	        -19.51854566	         -0.12771877	          0.00000000	         -0.01994413	         -0.00000025	          0.00000237	          0.00000003	          0.00000000	          0.00000000	          0.00000000	          0.00000000	          0.21772292	          0.00000000	          0.00000000	         -0.00000000	          0.00000000	
          1.44000000	        -12.41706704	        184.51850182	        -20.47567654	         -0.14103307	          0.00000000	         -0.02259569	         -0.00000026	          0.00000239	          0.00000003	          0.00000000	          0.00000000	          0.00000000	          0.00000000	          0.22472168	          0.00000000	          0.00000000	         -0.00000000	          0.00000000	
          1.44100000	        -13.83684751	        194.32977143	        -21.42823047	         -0.15398786	          0.00000000	         -0.02517449	         -0.00000027	          0.00000241	          0.00000003	          0.00000000	          0.00000000	          0.00000000	          0.00000000	          0.23124988	          0.00000000	          0.00000000	         -0.00000000	          0.00000000	
          1.44200000	        -15.33498412	        204.23076501	        -22.37278796	         -0.16656237	          0.00000000	         -0.02767717	         -0.00000028	          0.00000242	          0.00000003	          0.00000000	          0.00000000	          0.00000000	          0.00000000	          0.23725235	          0.00000000	          0.00000000	          0.00000000	          0.00000000	
          1.44300000	        -16.91168475	        214.19934947	        -23.30580242	         -0.17873895	          0.00000000	         -0.03010102	         -0.00000029	          0.00000242	          0.00000003	          0.00000000	          0.00000000	          0.00000000	          0.00000000	          0.24267257	          0.00000000	          0.00000000	          0.00000000	          0.00000000	
          1.44400000	        -18.56660751	        224.21453183	        -24.22360871	         -0.19050297	          0.00000000	         -0.03244390	         -0.00000030	          0.00000241	          0.00000003	          0.00000000	          0.00000000	          0.00000000	          0.00000000	          0.24745272	          0.00000000	          0.00000000	          0.00000001	          0.00000000	
          1.44500000	        -20.29879621	        234.25691678	        -25.12243737	         -0.20184258	          0.00000000	         -0.03470422	         -0.00000030	          0.00000239	          0.00000003	          0.00000000	          0.00000000	          0.00000000	          0.00000000	          0.25153366	          0.00000000	          0.00000000	          0.00000001	          0.00000000	
          1.44600000	        -22.10663723	        244.30895233	        -25.99843830	         -0.21274853	          0.00000000	         -0.03688089	         -0.00000031	          0.00000236	          0.00000003	          0.00000000	          0.00000000	          0.00000000	          0.00000000	          0.25485478	          0.00000000	          0.00000000	          0.00000001	          0.00000000	
          1.44700000	        -23.98784184	        254.35497151	        -26.84771460	         -0.22321400	          0.00000000	         -0.03897326	         -0.00000031	          0.00000231	          0.00000003	          0.00000000	          0.00000000	          0.00000000	          0.00000000	          0.25735402	          0.00000000	          0.00000000	          0.00000002	          0.00000000	
          1.44800000	        -25.93945322	        264.38107616	        -27.66636401	         -0.23323442	          0.00000000	         -0.04098112	         -0.00000032	          0.00000225	          0.00000003	          0.00000000	          0.00000000	          0.00000000	          0.00000000	          0.25896784	          0.00000000	          0.00000000	          0.00000002	          0.00000000	
          1.44900000	        -27.95787324	        274.37492550	        -28.45052293	         -0.24280730	          0.00000000	         -0.04290462	         -0.00000032	          0.00000218	          0.00000003	          0.00000000	          0.00000000	          0.00000000	          0.00000000	          0.25963134	          0.00000000	          0.00000000	          0.00000002	          0.00000000	
          1.45000000	        -30.03890243	        284.32548804	        -29.19640837	         -0.25193206	          0.00000000	         -0.04474427	         -0.00000032	          0.00000209	          0.00000003	          0.00000000	          0.00000000	          0.00000000	          0.00000000	          0.25927859	          0.00000000	          0.00000000	          0.00000003	          0.00000000	
          1.45100000	        -32.17778721	        294.22280243	        -29.90035440	         -0.26060988	          0.00000000	         -0.04650088	         -0.00000033	          0.00000198	          0.00000003	          0.00000000	          0.00000000	          0.00000000	          0.00000000	          0.25784292	          0.00000000	          0.00000000	          0.00000003	          0.00000000	
          1.45200000	        -34.36927067	        304.05777495	        -30.55884211	         -0.26884355	          0.00000000	         -0.04817551	         -0.00000033	          0.00000186	          0.00000003	          0.00000000	          0.00000000	         -0.00000000	          0.00000000	          0.25525734	          0.00000000	          0.00000000	          0.00000003	          0.00000000	
          1.45300000	        -36.60764545	        313.82202636	        -31.16852362	         -0.27663731	          0.00000000	         -0.04976952	         -0.00000033	          0.00000171	          0.00000002	         -0.00000000	          0.00000000	         -0.00000000	          0.00000000	          0.25145496	          0.00000000	          0.00000000	          0.00000004	          0.00000000	
          1.45400000	        -38.88680941	        323.50778830	        -31.72624178	         -0.28399671	          0.00000000	         -0.05128445	         -0.00000032	          0.00000155	          0.00000002	         -0.00000000	          0.00000000	         -0.00000000	          0.00000000	          0.24636950	          0.00000000	          0.00000000	          0.00000004	          0.00000000	
          1.45500000	        -41.20032542	        333.10784135	        -32.22904764	         -0.29092851	          0.00000000	         -0.05272204	         -0.00000032	          0.00000136	          0.00000002	         -0.00000000	          0.00000000	         -0.00000000	          0.00000000	          0.23993606	          0.00000000	          0.00000000	          0.00000005	          0.00000000	
          1.45600000	        -43.54148686	        342.61548334	        -32.67421756	         -0.29744048	          0.00000000	         -0.05408422	         -0.00000031	          0.00000115	          0.00000002	         -0.00000000	          0.00000000	         -0.00000000	          0.00000000	          0.23209207	          0.00000000	          0.00000000	          0.00000005	          0.00000000	
